<svg width="190" height="57" fill="none" xmlns="http://www.w3.org/2000/svg"><g clip-path="url(#clip0_21_2)" fill="#020203"><path d="M159.388 21.975c1.455.122 2.838.308 4.207.915 1.162.529 1.966 1.389 2.623 2.455.59.994.267 2.234-.802 2.96-.927.663-1.969.625-2.983-.174-.407-.293-.808-.723-1.215-1.017-1.011-.868-2.818-.932-3.954-.209-.712.462-1.089 1.281-.906 2.051.186.633.587 1.063 1.205 1.293.55.227 1.171.32 1.72.48 1.241.322 2.478.644 3.646 1.034 1.441.537 2.595 1.342 3.452 2.623 1.519 2.208 1.342 5.258-.268 7.495-1.24 1.624-2.87 2.54-4.895 2.816-2.446.397-4.802.177-7.057-.945-1.295-.67-2.376-1.612-3.163-2.89-.523-.921-.416-1.961.305-2.7 1.083-1.141 2.475-1.161 3.684-.008l.601.648c1.002 1.147 2.307 1.61 3.768 1.522.558-.05 1.049-.171 1.546-.5 1.138-.793 1.196-2.39.043-3.195-.543-.366-1.162-.529-1.784-.689-1.237-.392-2.548-.648-3.782-1.107-1.444-.467-2.664-1.345-3.452-2.623-1.452-2.135-1.275-5.189.471-7.35 1.06-1.348 2.388-2.197 3.957-2.638.988-.282 2.016-.282 3.033-.247zM96.7 56.067a2.96 2.96 0 002.986-2.977V41.832c1.723 1.752 3.977 2.815 6.447 2.815 5.406 0 9.79-5.087 9.79-11.362s-4.384-11.362-9.79-11.362c-2.472 0-4.73 1.066-6.453 2.824a2.96 2.96 0 00-2.98-2.824 2.96 2.96 0 00-2.987 2.978v28.186a2.959 2.959 0 002.987 2.98zm8.367-28.956c3.001 0 5.432 2.763 5.432 6.174 0 3.41-2.431 6.173-5.432 6.173-3.001 0-5.433-2.762-5.433-6.173 0-3.408 2.432-6.174 5.433-6.174zm31.19-15.513a2.96 2.96 0 00-2.987 2.977V24.71c-1.723-1.752-3.977-2.815-6.447-2.815-5.406 0-9.79 5.087-9.79 11.362s4.384 11.362 9.79 11.362c2.473 0 4.73-1.066 6.453-2.824a2.96 2.96 0 002.981 2.824 2.96 2.96 0 002.986-2.978V14.58a2.96 2.96 0 00-2.986-2.982zm-8.367 27.831c-3.001 0-5.433-2.763-5.433-6.173s2.432-6.174 5.433-6.174 5.432 2.763 5.432 6.174c0 3.41-2.431 6.173-5.432 6.173zM49.972 22.643h-.932l-.067-.988c-.079-.793-.279-1.528-.48-2.33-.979-3.71-2.937-6.786-5.737-9.308-2.728-2.449-5.877-3.919-9.375-4.55.209-.49.348-.978.348-1.54 0-2.03-1.61-3.64-3.637-3.64-1.958 0-3.637 1.61-3.637 3.64 0 .562.14 1.05.348 1.47-.909.14-1.888.422-2.797.701-2.31.84-4.408 2.03-6.226 3.64H2.882C1.412 9.808.224 11 .224 12.466a2.658 2.658 0 002.658 2.659h10.772c-.209.348-.348.7-.56 1.048H6.592a2.658 2.658 0 100 5.317h4.968c-.07.346-.122.755-.14 1.147H9.97a2.444 2.444 0 00-2.437 2.438v.244a2.444 2.444 0 002.438 2.437h14.735l-.067 3.04-8.814 3.497c-.7.279-1.258.84-1.47 1.61-.21.7-.14 1.54.209 2.17l2.31 3.989c.49.84 1.4 1.33 2.24 1.33.418 0 .909-.14 1.33-.349 1.258-.77 1.679-2.379.91-3.64l-.77-1.33 7.625-3.15c.98-.42 1.61-1.33 1.61-2.379l.14-4.788h.999l3.059 6.188-4.059 6.647c-.49.84-.56 1.82-.07 2.659a2.62 2.62 0 002.31 1.33h4.829a2.658 2.658 0 100-5.316h-.14l2.38-3.85a2.62 2.62 0 00.139-2.588l-2.498-5.067H49.98a2.444 2.444 0 002.437-2.437v-.244a2.457 2.457 0 00-2.446-2.435zm-7.913-.77c-.038.003-.073.003-.11.003a1.445 1.445 0 01-1.433-1.33c-.387-5.134-3.899-6.941-5.959-7.563a1.438 1.438 0 01-.961-1.79 1.442 1.442 0 011.79-.96c4.706 1.417 7.62 5.098 7.994 10.098a1.432 1.432 0 01-1.322 1.542zm43.183-3.201c-1.351-1.351-1.351-3.57.049-4.968 1.35-1.351 3.617-1.4 5.017 0 1.4 1.4 1.4 3.617 0 5.017-1.4 1.398-3.666 1.348-5.067-.05zm5.522 22.89a3.037 3.037 0 01-3.027 3.027 3.037 3.037 0 01-3.027-3.027V24.95a3.037 3.037 0 013.027-3.027 3.037 3.037 0 013.027 3.027v16.612zm51.96-22.89c-1.351-1.351-1.351-3.57.049-4.968 1.351-1.351 3.617-1.4 5.017 0a3.52 3.52 0 010 5.017c-1.4 1.398-3.666 1.348-5.066-.05zm5.523 22.89a3.037 3.037 0 01-3.028 3.027 3.037 3.037 0 01-3.027-3.027V24.95a3.037 3.037 0 013.027-3.027 3.037 3.037 0 013.028 3.027v16.612zm-66.497.02a3.036 3.036 0 01-3.028 3.027 3.036 3.036 0 01-3.027-3.027V14.114a3.037 3.037 0 013.027-3.028 3.037 3.037 0 013.028 3.027v27.47zM67.508 17.8c.372-.57.921-1.02 1.7-1.194.412-.087.848-.11 1.211-.134.587-.037 1.165.056 1.677-.017 1.821-.218 2.623-2.115 1.676-3.646-.512-.802-1.238-1.24-2.115-1.458-1.238-.364-2.478-.364-3.788-.218-3.789.511-6.488 3.28-6.778 7.144a45.785 45.785 0 00-.073 2.507l-.003.003v1.859h-2.89a2.567 2.567 0 00-2.56 2.56 2.567 2.567 0 002.56 2.559h2.89l.04 13.86a3.036 3.036 0 003.028 3.028 3.036 3.036 0 003.027-3.027l.003-13.82v-.041h3.062a2.567 2.567 0 002.56-2.56 2.567 2.567 0 00-2.56-2.559h-3.062v-3.762c.003-.384.186-.764.395-1.084zm121.902 9.683c-.656-2.405-1.897-4.3-4.233-5.32-1.679-.801-3.503-.946-5.328-.656-1.725.288-3.239.933-4.471 2.205v-9.84a3.036 3.036 0 00-3.027-3.027 3.036 3.036 0 00-3.027 3.027v27.844a3.036 3.036 0 003.027 3.027 3.036 3.036 0 003.027-3.027v-11.36c.244-1.121.747-2.05 1.697-2.725.95-.729 2.045-.802 3.213-.656 1.461.218 2.481.947 2.992 2.257.294.73.366 1.459.366 2.185V41.68a3.034 3.034 0 003.065 3.06c1.68 0 3.065-1.384 3.065-3.06V30.25c0-.946-.148-1.893-.366-2.768z"/></g><defs><clipPath id="clip0_21_2"><path fill="#fff" d="M0 0h190v56.07H0z"/></clipPath></defs></svg>